solid NACA0012
  facet normal -0.996004 0.089310 0.000000
    outer loop
      vertex 0.000000 0.000000 -0.050000
      vertex 0.000000 0.000000 0.050000
      vertex 0.000252 0.002807 -0.050000
    endloop
  endfacet
  facet normal -0.996004 0.089310 0.000000
    outer loop
      vertex 0.000252 0.002807 -0.050000
      vertex 0.000000 0.000000 0.050000
      vertex 0.000252 0.002807 0.050000
    endloop
  endfacet
  facet normal -0.964771 0.263092 0.000000
    outer loop
      vertex 0.000252 0.002807 -0.050000
      vertex 0.000252 0.002807 0.050000
      vertex 0.001007 0.005576 -0.050000
    endloop
  endfacet
  facet normal -0.964771 0.263092 0.000000
    outer loop
      vertex 0.001007 0.005576 -0.050000
      vertex 0.000252 0.002807 0.050000
      vertex 0.001007 0.005576 0.050000
    endloop
  endfacet
  facet normal -0.908192 0.418553 0.000000
    outer loop
      vertex 0.001007 0.005576 -0.050000
      vertex 0.001007 0.005576 0.050000
      vertex 0.002264 0.008304 -0.050000
    endloop
  endfacet
  facet normal -0.908192 0.418553 0.000000
    outer loop
      vertex 0.002264 0.008304 -0.050000
      vertex 0.001007 0.005576 0.050000
      vertex 0.002264 0.008304 0.050000
    endloop
  endfacet
  facet normal -0.836715 0.547639 0.000000
    outer loop
      vertex 0.002264 0.008304 -0.050000
      vertex 0.002264 0.008304 0.050000
      vertex 0.004023 0.010991 -0.050000
    endloop
  endfacet
  facet normal -0.836715 0.547639 0.000000
    outer loop
      vertex 0.004023 0.010991 -0.050000
      vertex 0.002264 0.008304 0.050000
      vertex 0.004023 0.010991 0.050000
    endloop
  endfacet
  facet normal -0.760398 0.649457 0.000000
    outer loop
      vertex 0.004023 0.010991 -0.050000
      vertex 0.004023 0.010991 0.050000
      vertex 0.006281 0.013634 -0.050000
    endloop
  endfacet
  facet normal -0.760398 0.649457 0.000000
    outer loop
      vertex 0.006281 0.013634 -0.050000
      vertex 0.004023 0.010991 0.050000
      vertex 0.006281 0.013634 0.050000
    endloop
  endfacet
  facet normal -0.686143 0.727467 0.000000
    outer loop
      vertex 0.006281 0.013634 -0.050000
      vertex 0.006281 0.013634 0.050000
      vertex 0.009036 0.016233 -0.050000
    endloop
  endfacet
  facet normal -0.686143 0.727467 0.000000
    outer loop
      vertex 0.009036 0.016233 -0.050000
      vertex 0.006281 0.013634 0.050000
      vertex 0.009036 0.016233 0.050000
    endloop
  endfacet
  facet normal -0.617553 0.786529 0.000000
    outer loop
      vertex 0.009036 0.016233 -0.050000
      vertex 0.009036 0.016233 0.050000
      vertex 0.012285 0.018784 -0.050000
    endloop
  endfacet
  facet normal -0.617553 0.786529 0.000000
    outer loop
      vertex 0.012285 0.018784 -0.050000
      vertex 0.009036 0.016233 0.050000
      vertex 0.012285 0.018784 0.050000
    endloop
  endfacet
  facet normal -0.555934 0.831226 0.000000
    outer loop
      vertex 0.012285 0.018784 -0.050000
      vertex 0.012285 0.018784 0.050000
      vertex 0.016026 0.021286 -0.050000
    endloop
  endfacet
  facet normal -0.555934 0.831226 0.000000
    outer loop
      vertex 0.016026 0.021286 -0.050000
      vertex 0.012285 0.018784 0.050000
      vertex 0.016026 0.021286 0.050000
    endloop
  endfacet
  facet normal -0.501312 0.865267 0.000000
    outer loop
      vertex 0.016026 0.021286 -0.050000
      vertex 0.016026 0.021286 0.050000
      vertex 0.020254 0.023736 -0.050000
    endloop
  endfacet
  facet normal -0.501312 0.865267 0.000000
    outer loop
      vertex 0.020254 0.023736 -0.050000
      vertex 0.016026 0.021286 0.050000
      vertex 0.020254 0.023736 0.050000
    endloop
  endfacet
  facet normal -0.453120 0.891450 0.000000
    outer loop
      vertex 0.020254 0.023736 -0.050000
      vertex 0.020254 0.023736 0.050000
      vertex 0.024964 0.026130 -0.050000
    endloop
  endfacet
  facet normal -0.453120 0.891450 0.000000
    outer loop
      vertex 0.024964 0.026130 -0.050000
      vertex 0.020254 0.023736 0.050000
      vertex 0.024964 0.026130 0.050000
    endloop
  endfacet
  facet normal -0.410585 0.911822 0.000000
    outer loop
      vertex 0.024964 0.026130 -0.050000
      vertex 0.024964 0.026130 0.050000
      vertex 0.030154 0.028467 -0.050000
    endloop
  endfacet
  facet normal -0.410585 0.911822 0.000000
    outer loop
      vertex 0.030154 0.028467 -0.050000
      vertex 0.024964 0.026130 0.050000
      vertex 0.030154 0.028467 0.050000
    endloop
  endfacet
  facet normal -0.372920 0.927864 0.000000
    outer loop
      vertex 0.030154 0.028467 -0.050000
      vertex 0.030154 0.028467 0.050000
      vertex 0.035816 0.030743 -0.050000
    endloop
  endfacet
  facet normal -0.372920 0.927864 0.000000
    outer loop
      vertex 0.035816 0.030743 -0.050000
      vertex 0.030154 0.028467 0.050000
      vertex 0.035816 0.030743 0.050000
    endloop
  endfacet
  facet normal -0.339404 0.940641 0.000000
    outer loop
      vertex 0.035816 0.030743 -0.050000
      vertex 0.035816 0.030743 0.050000
      vertex 0.041946 0.032954 -0.050000
    endloop
  endfacet
  facet normal -0.339404 0.940641 0.000000
    outer loop
      vertex 0.041946 0.032954 -0.050000
      vertex 0.035816 0.030743 0.050000
      vertex 0.041946 0.032954 0.050000
    endloop
  endfacet
  facet normal -0.309409 0.950929 0.000000
    outer loop
      vertex 0.041946 0.032954 -0.050000
      vertex 0.041946 0.032954 0.050000
      vertex 0.048537 0.035099 -0.050000
    endloop
  endfacet
  facet normal -0.309409 0.950929 0.000000
    outer loop
      vertex 0.048537 0.035099 -0.050000
      vertex 0.041946 0.032954 0.050000
      vertex 0.048537 0.035099 0.050000
    endloop
  endfacet
  facet normal -0.282405 0.959295 0.000000
    outer loop
      vertex 0.048537 0.035099 -0.050000
      vertex 0.048537 0.035099 0.050000
      vertex 0.055582 0.037173 -0.050000
    endloop
  endfacet
  facet normal -0.282405 0.959295 0.000000
    outer loop
      vertex 0.055582 0.037173 -0.050000
      vertex 0.048537 0.035099 0.050000
      vertex 0.055582 0.037173 0.050000
    endloop
  endfacet
  facet normal -0.257946 0.966159 0.000000
    outer loop
      vertex 0.055582 0.037173 -0.050000
      vertex 0.055582 0.037173 0.050000
      vertex 0.063075 0.039174 -0.050000
    endloop
  endfacet
  facet normal -0.257946 0.966159 0.000000
    outer loop
      vertex 0.063075 0.039174 -0.050000
      vertex 0.055582 0.037173 0.050000
      vertex 0.063075 0.039174 0.050000
    endloop
  endfacet
  facet normal -0.235664 0.971835 0.000000
    outer loop
      vertex 0.063075 0.039174 -0.050000
      vertex 0.063075 0.039174 0.050000
      vertex 0.071008 0.041097 -0.050000
    endloop
  endfacet
  facet normal -0.235664 0.971835 0.000000
    outer loop
      vertex 0.071008 0.041097 -0.050000
      vertex 0.063075 0.039174 0.050000
      vertex 0.071008 0.041097 0.050000
    endloop
  endfacet
  facet normal -0.215252 0.976559 0.000000
    outer loop
      vertex 0.071008 0.041097 -0.050000
      vertex 0.071008 0.041097 0.050000
      vertex 0.079373 0.042941 -0.050000
    endloop
  endfacet
  facet normal -0.215252 0.976559 0.000000
    outer loop
      vertex 0.079373 0.042941 -0.050000
      vertex 0.071008 0.041097 0.050000
      vertex 0.079373 0.042941 0.050000
    endloop
  endfacet
  facet normal -0.196456 0.980513 0.000000
    outer loop
      vertex 0.079373 0.042941 -0.050000
      vertex 0.079373 0.042941 0.050000
      vertex 0.088162 0.044702 -0.050000
    endloop
  endfacet
  facet normal -0.196456 0.980513 0.000000
    outer loop
      vertex 0.088162 0.044702 -0.050000
      vertex 0.079373 0.042941 0.050000
      vertex 0.088162 0.044702 0.050000
    endloop
  endfacet
  facet normal -0.179066 0.983837 0.000000
    outer loop
      vertex 0.088162 0.044702 -0.050000
      vertex 0.088162 0.044702 0.050000
      vertex 0.097365 0.046377 -0.050000
    endloop
  endfacet
  facet normal -0.179066 0.983837 0.000000
    outer loop
      vertex 0.097365 0.046377 -0.050000
      vertex 0.088162 0.044702 0.050000
      vertex 0.097365 0.046377 0.050000
    endloop
  endfacet
  facet normal -0.162908 0.986641 0.000000
    outer loop
      vertex 0.097365 0.046377 -0.050000
      vertex 0.097365 0.046377 0.050000
      vertex 0.106973 0.047963 -0.050000
    endloop
  endfacet
  facet normal -0.162908 0.986641 0.000000
    outer loop
      vertex 0.106973 0.047963 -0.050000
      vertex 0.097365 0.046377 0.050000
      vertex 0.106973 0.047963 0.050000
    endloop
  endfacet
  facet normal -0.147834 0.989012 0.000000
    outer loop
      vertex 0.106973 0.047963 -0.050000
      vertex 0.106973 0.047963 0.050000
      vertex 0.116978 0.049459 -0.050000
    endloop
  endfacet
  facet normal -0.147834 0.989012 0.000000
    outer loop
      vertex 0.116978 0.049459 -0.050000
      vertex 0.106973 0.047963 0.050000
      vertex 0.116978 0.049459 0.050000
    endloop
  endfacet
  facet normal -0.133723 0.991019 0.000000
    outer loop
      vertex 0.116978 0.049459 -0.050000
      vertex 0.116978 0.049459 0.050000
      vertex 0.127368 0.050861 -0.050000
    endloop
  endfacet
  facet normal -0.133723 0.991019 0.000000
    outer loop
      vertex 0.127368 0.050861 -0.050000
      vertex 0.116978 0.049459 0.050000
      vertex 0.127368 0.050861 0.050000
    endloop
  endfacet
  facet normal -0.120472 0.992717 0.000000
    outer loop
      vertex 0.127368 0.050861 -0.050000
      vertex 0.127368 0.050861 0.050000
      vertex 0.138133 0.052167 -0.050000
    endloop
  endfacet
  facet normal -0.120472 0.992717 0.000000
    outer loop
      vertex 0.138133 0.052167 -0.050000
      vertex 0.127368 0.050861 0.050000
      vertex 0.138133 0.052167 0.050000
    endloop
  endfacet
  facet normal -0.107995 0.994151 0.000000
    outer loop
      vertex 0.138133 0.052167 -0.050000
      vertex 0.138133 0.052167 0.050000
      vertex 0.149263 0.053376 -0.050000
    endloop
  endfacet
  facet normal -0.107995 0.994151 0.000000
    outer loop
      vertex 0.149263 0.053376 -0.050000
      vertex 0.138133 0.052167 0.050000
      vertex 0.149263 0.053376 0.050000
    endloop
  endfacet
  facet normal -0.096219 0.995360 0.000000
    outer loop
      vertex 0.149263 0.053376 -0.050000
      vertex 0.149263 0.053376 0.050000
      vertex 0.160745 0.054486 -0.050000
    endloop
  endfacet
  facet normal -0.096219 0.995360 0.000000
    outer loop
      vertex 0.160745 0.054486 -0.050000
      vertex 0.149263 0.053376 0.050000
      vertex 0.160745 0.054486 0.050000
    endloop
  endfacet
  facet normal -0.085081 0.996374 0.000000
    outer loop
      vertex 0.160745 0.054486 -0.050000
      vertex 0.160745 0.054486 0.050000
      vertex 0.172570 0.055496 -0.050000
    endloop
  endfacet
  facet normal -0.085081 0.996374 0.000000
    outer loop
      vertex 0.172570 0.055496 -0.050000
      vertex 0.160745 0.054486 0.050000
      vertex 0.172570 0.055496 0.050000
    endloop
  endfacet
  facet normal -0.074530 0.997219 0.000000
    outer loop
      vertex 0.172570 0.055496 -0.050000
      vertex 0.172570 0.055496 0.050000
      vertex 0.184724 0.056404 -0.050000
    endloop
  endfacet
  facet normal -0.074530 0.997219 0.000000
    outer loop
      vertex 0.184724 0.056404 -0.050000
      vertex 0.172570 0.055496 0.050000
      vertex 0.184724 0.056404 0.050000
    endloop
  endfacet
  facet normal -0.064519 0.997916 0.000000
    outer loop
      vertex 0.184724 0.056404 -0.050000
      vertex 0.184724 0.056404 0.050000
      vertex 0.197195 0.057211 -0.050000
    endloop
  endfacet
  facet normal -0.064519 0.997916 0.000000
    outer loop
      vertex 0.197195 0.057211 -0.050000
      vertex 0.184724 0.056404 0.050000
      vertex 0.197195 0.057211 0.050000
    endloop
  endfacet
  facet normal -0.055010 0.998486 0.000000
    outer loop
      vertex 0.197195 0.057211 -0.050000
      vertex 0.197195 0.057211 0.050000
      vertex 0.209972 0.057915 -0.050000
    endloop
  endfacet
  facet normal -0.055010 0.998486 0.000000
    outer loop
      vertex 0.209972 0.057915 -0.050000
      vertex 0.197195 0.057211 0.050000
      vertex 0.209972 0.057915 0.050000
    endloop
  endfacet
  facet normal -0.045970 0.998943 0.000000
    outer loop
      vertex 0.209972 0.057915 -0.050000
      vertex 0.209972 0.057915 0.050000
      vertex 0.223040 0.058516 -0.050000
    endloop
  endfacet
  facet normal -0.045970 0.998943 0.000000
    outer loop
      vertex 0.223040 0.058516 -0.050000
      vertex 0.209972 0.057915 0.050000
      vertex 0.223040 0.058516 0.050000
    endloop
  endfacet
  facet normal -0.037368 0.999302 0.000000
    outer loop
      vertex 0.223040 0.058516 -0.050000
      vertex 0.223040 0.058516 0.050000
      vertex 0.236387 0.059015 -0.050000
    endloop
  endfacet
  facet normal -0.037368 0.999302 0.000000
    outer loop
      vertex 0.236387 0.059015 -0.050000
      vertex 0.223040 0.058516 0.050000
      vertex 0.236387 0.059015 0.050000
    endloop
  endfacet
  facet normal -0.029180 0.999574 0.000000
    outer loop
      vertex 0.236387 0.059015 -0.050000
      vertex 0.236387 0.059015 0.050000
      vertex 0.250000 0.059412 -0.050000
    endloop
  endfacet
  facet normal -0.029180 0.999574 0.000000
    outer loop
      vertex 0.250000 0.059412 -0.050000
      vertex 0.236387 0.059015 0.050000
      vertex 0.250000 0.059412 0.050000
    endloop
  endfacet
  facet normal -0.021382 0.999771 0.000000
    outer loop
      vertex 0.250000 0.059412 -0.050000
      vertex 0.250000 0.059412 0.050000
      vertex 0.263864 0.059709 -0.050000
    endloop
  endfacet
  facet normal -0.021382 0.999771 0.000000
    outer loop
      vertex 0.263864 0.059709 -0.050000
      vertex 0.250000 0.059412 0.050000
      vertex 0.263864 0.059709 0.050000
    endloop
  endfacet
  facet normal -0.013955 0.999903 0.000000
    outer loop
      vertex 0.263864 0.059709 -0.050000
      vertex 0.263864 0.059709 0.050000
      vertex 0.277967 0.059906 -0.050000
    endloop
  endfacet
  facet normal -0.013955 0.999903 0.000000
    outer loop
      vertex 0.277967 0.059906 -0.050000
      vertex 0.263864 0.059709 0.050000
      vertex 0.277967 0.059906 0.050000
    endloop
  endfacet
  facet normal -0.006879 0.999976 0.000000
    outer loop
      vertex 0.277967 0.059906 -0.050000
      vertex 0.277967 0.059906 0.050000
      vertex 0.292292 0.060004 -0.050000
    endloop
  endfacet
  facet normal -0.006879 0.999976 0.000000
    outer loop
      vertex 0.292292 0.060004 -0.050000
      vertex 0.277967 0.059906 0.050000
      vertex 0.292292 0.060004 0.050000
    endloop
  endfacet
  facet normal -0.000138 1.000000 0.000000
    outer loop
      vertex 0.292292 0.060004 -0.050000
      vertex 0.292292 0.060004 0.050000
      vertex 0.306827 0.060006 -0.050000
    endloop
  endfacet
  facet normal -0.000138 1.000000 0.000000
    outer loop
      vertex 0.306827 0.060006 -0.050000
      vertex 0.292292 0.060004 0.050000
      vertex 0.306827 0.060006 0.050000
    endloop
  endfacet
  facet normal 0.006282 0.999980 -0.000000
    outer loop
      vertex 0.306827 0.060006 -0.050000
      vertex 0.306827 0.060006 0.050000
      vertex 0.321557 0.059914 -0.050000
    endloop
  endfacet
  facet normal 0.006282 0.999980 -0.000000
    outer loop
      vertex 0.321557 0.059914 -0.050000
      vertex 0.306827 0.060006 0.050000
      vertex 0.321557 0.059914 0.050000
    endloop
  endfacet
  facet normal 0.012398 0.999923 -0.000000
    outer loop
      vertex 0.321557 0.059914 -0.050000
      vertex 0.321557 0.059914 0.050000
      vertex 0.336466 0.059729 -0.050000
    endloop
  endfacet
  facet normal 0.012398 0.999923 -0.000000
    outer loop
      vertex 0.336466 0.059729 -0.050000
      vertex 0.321557 0.059914 0.050000
      vertex 0.336466 0.059729 0.050000
    endloop
  endfacet
  facet normal 0.018221 0.999834 -0.000000
    outer loop
      vertex 0.336466 0.059729 -0.050000
      vertex 0.336466 0.059729 0.050000
      vertex 0.351540 0.059454 -0.050000
    endloop
  endfacet
  facet normal 0.018221 0.999834 -0.000000
    outer loop
      vertex 0.351540 0.059454 -0.050000
      vertex 0.336466 0.059729 0.050000
      vertex 0.351540 0.059454 0.050000
    endloop
  endfacet
  facet normal 0.023764 0.999718 -0.000000
    outer loop
      vertex 0.351540 0.059454 -0.050000
      vertex 0.351540 0.059454 0.050000
      vertex 0.366763 0.059092 -0.050000
    endloop
  endfacet
  facet normal 0.023764 0.999718 -0.000000
    outer loop
      vertex 0.366763 0.059092 -0.050000
      vertex 0.351540 0.059454 0.050000
      vertex 0.366763 0.059092 0.050000
    endloop
  endfacet
  facet normal 0.029040 0.999578 -0.000000
    outer loop
      vertex 0.366763 0.059092 -0.050000
      vertex 0.366763 0.059092 0.050000
      vertex 0.382121 0.058646 -0.050000
    endloop
  endfacet
  facet normal 0.029040 0.999578 -0.000000
    outer loop
      vertex 0.382121 0.058646 -0.050000
      vertex 0.366763 0.059092 0.050000
      vertex 0.382121 0.058646 0.050000
    endloop
  endfacet
  facet normal 0.034061 0.999420 -0.000000
    outer loop
      vertex 0.382121 0.058646 -0.050000
      vertex 0.382121 0.058646 0.050000
      vertex 0.397597 0.058119 -0.050000
    endloop
  endfacet
  facet normal 0.034061 0.999420 -0.000000
    outer loop
      vertex 0.397597 0.058119 -0.050000
      vertex 0.382121 0.058646 0.050000
      vertex 0.397597 0.058119 0.050000
    endloop
  endfacet
  facet normal 0.038838 0.999246 -0.000000
    outer loop
      vertex 0.397597 0.058119 -0.050000
      vertex 0.397597 0.058119 0.050000
      vertex 0.413176 0.057513 -0.050000
    endloop
  endfacet
  facet normal 0.038838 0.999246 -0.000000
    outer loop
      vertex 0.413176 0.057513 -0.050000
      vertex 0.397597 0.058119 0.050000
      vertex 0.413176 0.057513 0.050000
    endloop
  endfacet
  facet normal 0.043381 0.999059 -0.000000
    outer loop
      vertex 0.413176 0.057513 -0.050000
      vertex 0.413176 0.057513 0.050000
      vertex 0.428843 0.056833 -0.050000
    endloop
  endfacet
  facet normal 0.043381 0.999059 -0.000000
    outer loop
      vertex 0.428843 0.056833 -0.050000
      vertex 0.413176 0.057513 0.050000
      vertex 0.428843 0.056833 0.050000
    endloop
  endfacet
  facet normal 0.047702 0.998862 -0.000000
    outer loop
      vertex 0.428843 0.056833 -0.050000
      vertex 0.428843 0.056833 0.050000
      vertex 0.444581 0.056081 -0.050000
    endloop
  endfacet
  facet normal 0.047702 0.998862 -0.000000
    outer loop
      vertex 0.444581 0.056081 -0.050000
      vertex 0.428843 0.056833 0.050000
      vertex 0.444581 0.056081 0.050000
    endloop
  endfacet
  facet normal 0.051812 0.998657 -0.000000
    outer loop
      vertex 0.444581 0.056081 -0.050000
      vertex 0.444581 0.056081 0.050000
      vertex 0.460375 0.055262 -0.050000
    endloop
  endfacet
  facet normal 0.051812 0.998657 -0.000000
    outer loop
      vertex 0.460375 0.055262 -0.050000
      vertex 0.444581 0.056081 0.050000
      vertex 0.460375 0.055262 0.050000
    endloop
  endfacet
  facet normal 0.055722 0.998446 -0.000000
    outer loop
      vertex 0.460375 0.055262 -0.050000
      vertex 0.460375 0.055262 0.050000
      vertex 0.476209 0.054378 -0.050000
    endloop
  endfacet
  facet normal 0.055722 0.998446 -0.000000
    outer loop
      vertex 0.476209 0.054378 -0.050000
      vertex 0.460375 0.055262 0.050000
      vertex 0.476209 0.054378 0.050000
    endloop
  endfacet
  facet normal 0.059440 0.998232 -0.000000
    outer loop
      vertex 0.476209 0.054378 -0.050000
      vertex 0.476209 0.054378 0.050000
      vertex 0.492067 0.053434 -0.050000
    endloop
  endfacet
  facet normal 0.059440 0.998232 -0.000000
    outer loop
      vertex 0.492067 0.053434 -0.050000
      vertex 0.476209 0.054378 0.050000
      vertex 0.492067 0.053434 0.050000
    endloop
  endfacet
  facet normal 0.062979 0.998015 -0.000000
    outer loop
      vertex 0.492067 0.053434 -0.050000
      vertex 0.492067 0.053434 0.050000
      vertex 0.507933 0.052433 -0.050000
    endloop
  endfacet
  facet normal 0.062979 0.998015 -0.000000
    outer loop
      vertex 0.507933 0.052433 -0.050000
      vertex 0.492067 0.053434 0.050000
      vertex 0.507933 0.052433 0.050000
    endloop
  endfacet
  facet normal 0.066347 0.997797 -0.000000
    outer loop
      vertex 0.507933 0.052433 -0.050000
      vertex 0.507933 0.052433 0.050000
      vertex 0.523791 0.051378 -0.050000
    endloop
  endfacet
  facet normal 0.066347 0.997797 -0.000000
    outer loop
      vertex 0.523791 0.051378 -0.050000
      vertex 0.507933 0.052433 0.050000
      vertex 0.523791 0.051378 0.050000
    endloop
  endfacet
  facet normal 0.069555 0.997578 -0.000000
    outer loop
      vertex 0.523791 0.051378 -0.050000
      vertex 0.523791 0.051378 0.050000
      vertex 0.539625 0.050274 -0.050000
    endloop
  endfacet
  facet normal 0.069555 0.997578 -0.000000
    outer loop
      vertex 0.539625 0.050274 -0.050000
      vertex 0.523791 0.051378 0.050000
      vertex 0.539625 0.050274 0.050000
    endloop
  endfacet
  facet normal 0.072613 0.997360 -0.000000
    outer loop
      vertex 0.539625 0.050274 -0.050000
      vertex 0.539625 0.050274 0.050000
      vertex 0.555419 0.049124 -0.050000
    endloop
  endfacet
  facet normal 0.072613 0.997360 -0.000000
    outer loop
      vertex 0.555419 0.049124 -0.050000
      vertex 0.539625 0.050274 0.050000
      vertex 0.555419 0.049124 0.050000
    endloop
  endfacet
  facet normal 0.075531 0.997143 -0.000000
    outer loop
      vertex 0.555419 0.049124 -0.050000
      vertex 0.555419 0.049124 0.050000
      vertex 0.571157 0.047932 -0.050000
    endloop
  endfacet
  facet normal 0.075531 0.997143 -0.000000
    outer loop
      vertex 0.571157 0.047932 -0.050000
      vertex 0.555419 0.049124 0.050000
      vertex 0.571157 0.047932 0.050000
    endloop
  endfacet
  facet normal 0.078316 0.996929 -0.000000
    outer loop
      vertex 0.571157 0.047932 -0.050000
      vertex 0.571157 0.047932 0.050000
      vertex 0.586824 0.046702 -0.050000
    endloop
  endfacet
  facet normal 0.078316 0.996929 -0.000000
    outer loop
      vertex 0.586824 0.046702 -0.050000
      vertex 0.571157 0.047932 0.050000
      vertex 0.586824 0.046702 0.050000
    endloop
  endfacet
  facet normal 0.080980 0.996716 -0.000000
    outer loop
      vertex 0.586824 0.046702 -0.050000
      vertex 0.586824 0.046702 0.050000
      vertex 0.602403 0.045436 -0.050000
    endloop
  endfacet
  facet normal 0.080980 0.996716 -0.000000
    outer loop
      vertex 0.602403 0.045436 -0.050000
      vertex 0.586824 0.046702 0.050000
      vertex 0.602403 0.045436 0.050000
    endloop
  endfacet
  facet normal 0.083529 0.996505 -0.000000
    outer loop
      vertex 0.602403 0.045436 -0.050000
      vertex 0.602403 0.045436 0.050000
      vertex 0.617879 0.044139 -0.050000
    endloop
  endfacet
  facet normal 0.083529 0.996505 -0.000000
    outer loop
      vertex 0.617879 0.044139 -0.050000
      vertex 0.602403 0.045436 0.050000
      vertex 0.617879 0.044139 0.050000
    endloop
  endfacet
  facet normal 0.085974 0.996297 -0.000000
    outer loop
      vertex 0.617879 0.044139 -0.050000
      vertex 0.617879 0.044139 0.050000
      vertex 0.633237 0.042813 -0.050000
    endloop
  endfacet
  facet normal 0.085974 0.996297 -0.000000
    outer loop
      vertex 0.633237 0.042813 -0.050000
      vertex 0.617879 0.044139 0.050000
      vertex 0.633237 0.042813 0.050000
    endloop
  endfacet
  facet normal 0.088321 0.996092 -0.000000
    outer loop
      vertex 0.633237 0.042813 -0.050000
      vertex 0.633237 0.042813 0.050000
      vertex 0.648460 0.041463 -0.050000
    endloop
  endfacet
  facet normal 0.088321 0.996092 -0.000000
    outer loop
      vertex 0.648460 0.041463 -0.050000
      vertex 0.633237 0.042813 0.050000
      vertex 0.648460 0.041463 0.050000
    endloop
  endfacet
  facet normal 0.090580 0.995889 -0.000000
    outer loop
      vertex 0.648460 0.041463 -0.050000
      vertex 0.648460 0.041463 0.050000
      vertex 0.663534 0.040092 -0.050000
    endloop
  endfacet
  facet normal 0.090580 0.995889 -0.000000
    outer loop
      vertex 0.663534 0.040092 -0.050000
      vertex 0.648460 0.041463 0.050000
      vertex 0.663534 0.040092 0.050000
    endloop
  endfacet
  facet normal 0.092756 0.995689 -0.000000
    outer loop
      vertex 0.663534 0.040092 -0.050000
      vertex 0.663534 0.040092 0.050000
      vertex 0.678443 0.038704 -0.050000
    endloop
  endfacet
  facet normal 0.092756 0.995689 -0.000000
    outer loop
      vertex 0.678443 0.038704 -0.050000
      vertex 0.663534 0.040092 0.050000
      vertex 0.678443 0.038704 0.050000
    endloop
  endfacet
  facet normal 0.094857 0.995491 -0.000000
    outer loop
      vertex 0.678443 0.038704 -0.050000
      vertex 0.678443 0.038704 0.050000
      vertex 0.693173 0.037300 -0.050000
    endloop
  endfacet
  facet normal 0.094857 0.995491 -0.000000
    outer loop
      vertex 0.693173 0.037300 -0.050000
      vertex 0.678443 0.038704 0.050000
      vertex 0.693173 0.037300 0.050000
    endloop
  endfacet
  facet normal 0.096889 0.995295 -0.000000
    outer loop
      vertex 0.693173 0.037300 -0.050000
      vertex 0.693173 0.037300 0.050000
      vertex 0.707708 0.035885 -0.050000
    endloop
  endfacet
  facet normal 0.096889 0.995295 -0.000000
    outer loop
      vertex 0.707708 0.035885 -0.050000
      vertex 0.693173 0.037300 0.050000
      vertex 0.707708 0.035885 0.050000
    endloop
  endfacet
  facet normal 0.098859 0.995101 -0.000000
    outer loop
      vertex 0.707708 0.035885 -0.050000
      vertex 0.707708 0.035885 0.050000
      vertex 0.722033 0.034462 -0.050000
    endloop
  endfacet
  facet normal 0.098859 0.995101 -0.000000
    outer loop
      vertex 0.722033 0.034462 -0.050000
      vertex 0.707708 0.035885 0.050000
      vertex 0.722033 0.034462 0.050000
    endloop
  endfacet
  facet normal 0.100771 0.994910 -0.000000
    outer loop
      vertex 0.722033 0.034462 -0.050000
      vertex 0.722033 0.034462 0.050000
      vertex 0.736136 0.033034 -0.050000
    endloop
  endfacet
  facet normal 0.100771 0.994910 -0.000000
    outer loop
      vertex 0.736136 0.033034 -0.050000
      vertex 0.722033 0.034462 0.050000
      vertex 0.736136 0.033034 0.050000
    endloop
  endfacet
  facet normal 0.102630 0.994720 -0.000000
    outer loop
      vertex 0.736136 0.033034 -0.050000
      vertex 0.736136 0.033034 0.050000
      vertex 0.750000 0.031603 -0.050000
    endloop
  endfacet
  facet normal 0.102630 0.994720 -0.000000
    outer loop
      vertex 0.750000 0.031603 -0.050000
      vertex 0.736136 0.033034 0.050000
      vertex 0.750000 0.031603 0.050000
    endloop
  endfacet
  facet normal 0.104441 0.994531 -0.000000
    outer loop
      vertex 0.750000 0.031603 -0.050000
      vertex 0.750000 0.031603 0.050000
      vertex 0.763613 0.030174 -0.050000
    endloop
  endfacet
  facet normal 0.104441 0.994531 -0.000000
    outer loop
      vertex 0.763613 0.030174 -0.050000
      vertex 0.750000 0.031603 0.050000
      vertex 0.763613 0.030174 0.050000
    endloop
  endfacet
  facet normal 0.106208 0.994344 -0.000000
    outer loop
      vertex 0.763613 0.030174 -0.050000
      vertex 0.763613 0.030174 0.050000
      vertex 0.776960 0.028748 -0.050000
    endloop
  endfacet
  facet normal 0.106208 0.994344 -0.000000
    outer loop
      vertex 0.776960 0.028748 -0.050000
      vertex 0.763613 0.030174 0.050000
      vertex 0.776960 0.028748 0.050000
    endloop
  endfacet
  facet normal 0.107934 0.994158 -0.000000
    outer loop
      vertex 0.776960 0.028748 -0.050000
      vertex 0.776960 0.028748 0.050000
      vertex 0.790028 0.027329 -0.050000
    endloop
  endfacet
  facet normal 0.107934 0.994158 -0.000000
    outer loop
      vertex 0.790028 0.027329 -0.050000
      vertex 0.776960 0.028748 0.050000
      vertex 0.790028 0.027329 0.050000
    endloop
  endfacet
  facet normal 0.109621 0.993973 -0.000000
    outer loop
      vertex 0.790028 0.027329 -0.050000
      vertex 0.790028 0.027329 0.050000
      vertex 0.802805 0.025920 -0.050000
    endloop
  endfacet
  facet normal 0.109621 0.993973 -0.000000
    outer loop
      vertex 0.802805 0.025920 -0.050000
      vertex 0.790028 0.027329 0.050000
      vertex 0.802805 0.025920 0.050000
    endloop
  endfacet
  facet normal 0.111272 0.993790 -0.000000
    outer loop
      vertex 0.802805 0.025920 -0.050000
      vertex 0.802805 0.025920 0.050000
      vertex 0.815276 0.024524 -0.050000
    endloop
  endfacet
  facet normal 0.111272 0.993790 -0.000000
    outer loop
      vertex 0.815276 0.024524 -0.050000
      vertex 0.802805 0.025920 0.050000
      vertex 0.815276 0.024524 0.050000
    endloop
  endfacet
  facet normal 0.112888 0.993608 -0.000000
    outer loop
      vertex 0.815276 0.024524 -0.050000
      vertex 0.815276 0.024524 0.050000
      vertex 0.827430 0.023143 -0.050000
    endloop
  endfacet
  facet normal 0.112888 0.993608 -0.000000
    outer loop
      vertex 0.827430 0.023143 -0.050000
      vertex 0.815276 0.024524 0.050000
      vertex 0.827430 0.023143 0.050000
    endloop
  endfacet
  facet normal 0.114470 0.993427 -0.000000
    outer loop
      vertex 0.827430 0.023143 -0.050000
      vertex 0.827430 0.023143 0.050000
      vertex 0.839255 0.021780 -0.050000
    endloop
  endfacet
  facet normal 0.114470 0.993427 -0.000000
    outer loop
      vertex 0.839255 0.021780 -0.050000
      vertex 0.827430 0.023143 0.050000
      vertex 0.839255 0.021780 0.050000
    endloop
  endfacet
  facet normal 0.116019 0.993247 -0.000000
    outer loop
      vertex 0.839255 0.021780 -0.050000
      vertex 0.839255 0.021780 0.050000
      vertex 0.850737 0.020439 -0.050000
    endloop
  endfacet
  facet normal 0.116019 0.993247 -0.000000
    outer loop
      vertex 0.850737 0.020439 -0.050000
      vertex 0.839255 0.021780 0.050000
      vertex 0.850737 0.020439 0.050000
    endloop
  endfacet
  facet normal 0.117536 0.993069 -0.000000
    outer loop
      vertex 0.850737 0.020439 -0.050000
      vertex 0.850737 0.020439 0.050000
      vertex 0.861867 0.019122 -0.050000
    endloop
  endfacet
  facet normal 0.117536 0.993069 -0.000000
    outer loop
      vertex 0.861867 0.019122 -0.050000
      vertex 0.850737 0.020439 0.050000
      vertex 0.861867 0.019122 0.050000
    endloop
  endfacet
  facet normal 0.119018 0.992892 -0.000000
    outer loop
      vertex 0.861867 0.019122 -0.050000
      vertex 0.861867 0.019122 0.050000
      vertex 0.872632 0.017831 -0.050000
    endloop
  endfacet
  facet normal 0.119018 0.992892 -0.000000
    outer loop
      vertex 0.872632 0.017831 -0.050000
      vertex 0.861867 0.019122 0.050000
      vertex 0.872632 0.017831 0.050000
    endloop
  endfacet
  facet normal 0.120467 0.992717 -0.000000
    outer loop
      vertex 0.872632 0.017831 -0.050000
      vertex 0.872632 0.017831 0.050000
      vertex 0.883022 0.016570 -0.050000
    endloop
  endfacet
  facet normal 0.120467 0.992717 -0.000000
    outer loop
      vertex 0.883022 0.016570 -0.050000
      vertex 0.872632 0.017831 0.050000
      vertex 0.883022 0.016570 0.050000
    endloop
  endfacet
  facet normal 0.121879 0.992545 -0.000000
    outer loop
      vertex 0.883022 0.016570 -0.050000
      vertex 0.883022 0.016570 0.050000
      vertex 0.893027 0.015342 -0.050000
    endloop
  endfacet
  facet normal 0.121879 0.992545 -0.000000
    outer loop
      vertex 0.893027 0.015342 -0.050000
      vertex 0.883022 0.016570 0.050000
      vertex 0.893027 0.015342 0.050000
    endloop
  endfacet
  facet normal 0.123255 0.992375 -0.000000
    outer loop
      vertex 0.893027 0.015342 -0.050000
      vertex 0.893027 0.015342 0.050000
      vertex 0.902635 0.014149 -0.050000
    endloop
  endfacet
  facet normal 0.123255 0.992375 -0.000000
    outer loop
      vertex 0.902635 0.014149 -0.050000
      vertex 0.893027 0.015342 0.050000
      vertex 0.902635 0.014149 0.050000
    endloop
  endfacet
  facet normal 0.124591 0.992208 -0.000000
    outer loop
      vertex 0.902635 0.014149 -0.050000
      vertex 0.902635 0.014149 0.050000
      vertex 0.911838 0.012993 -0.050000
    endloop
  endfacet
  facet normal 0.124591 0.992208 -0.000000
    outer loop
      vertex 0.911838 0.012993 -0.050000
      vertex 0.902635 0.014149 0.050000
      vertex 0.911838 0.012993 0.050000
    endloop
  endfacet
  facet normal 0.125886 0.992045 -0.000000
    outer loop
      vertex 0.911838 0.012993 -0.050000
      vertex 0.911838 0.012993 0.050000
      vertex 0.920627 0.011878 -0.050000
    endloop
  endfacet
  facet normal 0.125886 0.992045 -0.000000
    outer loop
      vertex 0.920627 0.011878 -0.050000
      vertex 0.911838 0.012993 0.050000
      vertex 0.920627 0.011878 0.050000
    endloop
  endfacet
  facet normal 0.127138 0.991885 -0.000000
    outer loop
      vertex 0.920627 0.011878 -0.050000
      vertex 0.920627 0.011878 0.050000
      vertex 0.928992 0.010805 -0.050000
    endloop
  endfacet
  facet normal 0.127138 0.991885 -0.000000
    outer loop
      vertex 0.928992 0.010805 -0.050000
      vertex 0.920627 0.011878 0.050000
      vertex 0.928992 0.010805 0.050000
    endloop
  endfacet
  facet normal 0.128342 0.991730 -0.000000
    outer loop
      vertex 0.928992 0.010805 -0.050000
      vertex 0.928992 0.010805 0.050000
      vertex 0.936925 0.009779 -0.050000
    endloop
  endfacet
  facet normal 0.128342 0.991730 -0.000000
    outer loop
      vertex 0.936925 0.009779 -0.050000
      vertex 0.928992 0.010805 0.050000
      vertex 0.936925 0.009779 0.050000
    endloop
  endfacet
  facet normal 0.129498 0.991580 -0.000000
    outer loop
      vertex 0.936925 0.009779 -0.050000
      vertex 0.936925 0.009779 0.050000
      vertex 0.944418 0.008800 -0.050000
    endloop
  endfacet
  facet normal 0.129498 0.991580 -0.000000
    outer loop
      vertex 0.944418 0.008800 -0.050000
      vertex 0.936925 0.009779 0.050000
      vertex 0.944418 0.008800 0.050000
    endloop
  endfacet
  facet normal 0.130600 0.991435 -0.000000
    outer loop
      vertex 0.944418 0.008800 -0.050000
      vertex 0.944418 0.008800 0.050000
      vertex 0.951463 0.007872 -0.050000
    endloop
  endfacet
  facet normal 0.130600 0.991435 -0.000000
    outer loop
      vertex 0.951463 0.007872 -0.050000
      vertex 0.944418 0.008800 0.050000
      vertex 0.951463 0.007872 0.050000
    endloop
  endfacet
  facet normal 0.131648 0.991297 -0.000000
    outer loop
      vertex 0.951463 0.007872 -0.050000
      vertex 0.951463 0.007872 0.050000
      vertex 0.958054 0.006997 -0.050000
    endloop
  endfacet
  facet normal 0.131648 0.991297 -0.000000
    outer loop
      vertex 0.958054 0.006997 -0.050000
      vertex 0.951463 0.007872 0.050000
      vertex 0.958054 0.006997 0.050000
    endloop
  endfacet
  facet normal 0.132636 0.991165 -0.000000
    outer loop
      vertex 0.958054 0.006997 -0.050000
      vertex 0.958054 0.006997 0.050000
      vertex 0.964184 0.006177 -0.050000
    endloop
  endfacet
  facet normal 0.132636 0.991165 -0.000000
    outer loop
      vertex 0.964184 0.006177 -0.050000
      vertex 0.958054 0.006997 0.050000
      vertex 0.964184 0.006177 0.050000
    endloop
  endfacet
  facet normal 0.133563 0.991040 -0.000000
    outer loop
      vertex 0.964184 0.006177 -0.050000
      vertex 0.964184 0.006177 0.050000
      vertex 0.969846 0.005414 -0.050000
    endloop
  endfacet
  facet normal 0.133563 0.991040 -0.000000
    outer loop
      vertex 0.969846 0.005414 -0.050000
      vertex 0.964184 0.006177 0.050000
      vertex 0.969846 0.005414 0.050000
    endloop
  endfacet
  facet normal 0.134425 0.990924 -0.000000
    outer loop
      vertex 0.969846 0.005414 -0.050000
      vertex 0.969846 0.005414 0.050000
      vertex 0.975036 0.004710 -0.050000
    endloop
  endfacet
  facet normal 0.134425 0.990924 -0.000000
    outer loop
      vertex 0.975036 0.004710 -0.050000
      vertex 0.969846 0.005414 0.050000
      vertex 0.975036 0.004710 0.050000
    endloop
  endfacet
  facet normal 0.135220 0.990816 -0.000000
    outer loop
      vertex 0.975036 0.004710 -0.050000
      vertex 0.975036 0.004710 0.050000
      vertex 0.979746 0.004067 -0.050000
    endloop
  endfacet
  facet normal 0.135220 0.990816 -0.000000
    outer loop
      vertex 0.979746 0.004067 -0.050000
      vertex 0.975036 0.004710 0.050000
      vertex 0.979746 0.004067 0.050000
    endloop
  endfacet
  facet normal 0.135944 0.990717 -0.000000
    outer loop
      vertex 0.979746 0.004067 -0.050000
      vertex 0.979746 0.004067 0.050000
      vertex 0.983974 0.003486 -0.050000
    endloop
  endfacet
  facet normal 0.135944 0.990717 -0.000000
    outer loop
      vertex 0.983974 0.003486 -0.050000
      vertex 0.979746 0.004067 0.050000
      vertex 0.983974 0.003486 0.050000
    endloop
  endfacet
  facet normal 0.136594 0.990627 -0.000000
    outer loop
      vertex 0.983974 0.003486 -0.050000
      vertex 0.983974 0.003486 0.050000
      vertex 0.987715 0.002971 -0.050000
    endloop
  endfacet
  facet normal 0.136594 0.990627 -0.000000
    outer loop
      vertex 0.987715 0.002971 -0.050000
      vertex 0.983974 0.003486 0.050000
      vertex 0.987715 0.002971 0.050000
    endloop
  endfacet
  facet normal 0.137169 0.990548 -0.000000
    outer loop
      vertex 0.987715 0.002971 -0.050000
      vertex 0.987715 0.002971 0.050000
      vertex 0.990964 0.002521 -0.050000
    endloop
  endfacet
  facet normal 0.137169 0.990548 -0.000000
    outer loop
      vertex 0.990964 0.002521 -0.050000
      vertex 0.987715 0.002971 0.050000
      vertex 0.990964 0.002521 0.050000
    endloop
  endfacet
  facet normal 0.137667 0.990479 -0.000000
    outer loop
      vertex 0.990964 0.002521 -0.050000
      vertex 0.990964 0.002521 0.050000
      vertex 0.993719 0.002138 -0.050000
    endloop
  endfacet
  facet normal 0.137667 0.990479 -0.000000
    outer loop
      vertex 0.993719 0.002138 -0.050000
      vertex 0.990964 0.002521 0.050000
      vertex 0.993719 0.002138 0.050000
    endloop
  endfacet
  facet normal 0.138084 0.990420 -0.000000
    outer loop
      vertex 0.993719 0.002138 -0.050000
      vertex 0.993719 0.002138 0.050000
      vertex 0.995977 0.001823 -0.050000
    endloop
  endfacet
  facet normal 0.138084 0.990420 -0.000000
    outer loop
      vertex 0.995977 0.001823 -0.050000
      vertex 0.993719 0.002138 0.050000
      vertex 0.995977 0.001823 0.050000
    endloop
  endfacet
  facet normal 0.138420 0.990374 -0.000000
    outer loop
      vertex 0.995977 0.001823 -0.050000
      vertex 0.995977 0.001823 0.050000
      vertex 0.997736 0.001577 -0.050000
    endloop
  endfacet
  facet normal 0.138420 0.990374 -0.000000
    outer loop
      vertex 0.997736 0.001577 -0.050000
      vertex 0.995977 0.001823 0.050000
      vertex 0.997736 0.001577 0.050000
    endloop
  endfacet
  facet normal 0.138673 0.990338 -0.000000
    outer loop
      vertex 0.997736 0.001577 -0.050000
      vertex 0.997736 0.001577 0.050000
      vertex 0.998993 0.001401 -0.050000
    endloop
  endfacet
  facet normal 0.138673 0.990338 -0.000000
    outer loop
      vertex 0.998993 0.001401 -0.050000
      vertex 0.997736 0.001577 0.050000
      vertex 0.998993 0.001401 0.050000
    endloop
  endfacet
  facet normal 0.138843 0.990314 -0.000000
    outer loop
      vertex 0.998993 0.001401 -0.050000
      vertex 0.998993 0.001401 0.050000
      vertex 0.999748 0.001295 -0.050000
    endloop
  endfacet
  facet normal 0.138843 0.990314 -0.000000
    outer loop
      vertex 0.999748 0.001295 -0.050000
      vertex 0.998993 0.001401 0.050000
      vertex 0.999748 0.001295 0.050000
    endloop
  endfacet
  facet normal 0.138928 0.990303 -0.000000
    outer loop
      vertex 0.999748 0.001295 -0.050000
      vertex 0.999748 0.001295 0.050000
      vertex 1.000000 0.001260 -0.050000
    endloop
  endfacet
  facet normal 0.138928 0.990303 -0.000000
    outer loop
      vertex 1.000000 0.001260 -0.050000
      vertex 0.999748 0.001295 0.050000
      vertex 1.000000 0.001260 0.050000
    endloop
  endfacet
  facet normal 0.995183 -0.098037 0.000000
    outer loop
      vertex 1.000000 0.001260 -0.050000
      vertex 1.000000 0.001260 0.050000
      vertex 0.999748 -0.001295 -0.050000
    endloop
  endfacet
  facet normal 0.995183 -0.098037 0.000000
    outer loop
      vertex 0.999748 -0.001295 -0.050000
      vertex 1.000000 0.001260 0.050000
      vertex 0.999748 -0.001295 0.050000
    endloop
  endfacet
  facet normal 0.138843 -0.990314 0.000000
    outer loop
      vertex 0.999748 -0.001295 -0.050000
      vertex 0.999748 -0.001295 0.050000
      vertex 0.998993 -0.001401 -0.050000
    endloop
  endfacet
  facet normal 0.138843 -0.990314 0.000000
    outer loop
      vertex 0.998993 -0.001401 -0.050000
      vertex 0.999748 -0.001295 0.050000
      vertex 0.998993 -0.001401 0.050000
    endloop
  endfacet
  facet normal 0.138673 -0.990338 0.000000
    outer loop
      vertex 0.998993 -0.001401 -0.050000
      vertex 0.998993 -0.001401 0.050000
      vertex 0.997736 -0.001577 -0.050000
    endloop
  endfacet
  facet normal 0.138673 -0.990338 0.000000
    outer loop
      vertex 0.997736 -0.001577 -0.050000
      vertex 0.998993 -0.001401 0.050000
      vertex 0.997736 -0.001577 0.050000
    endloop
  endfacet
  facet normal 0.138420 -0.990374 0.000000
    outer loop
      vertex 0.997736 -0.001577 -0.050000
      vertex 0.997736 -0.001577 0.050000
      vertex 0.995977 -0.001823 -0.050000
    endloop
  endfacet
  facet normal 0.138420 -0.990374 0.000000
    outer loop
      vertex 0.995977 -0.001823 -0.050000
      vertex 0.997736 -0.001577 0.050000
      vertex 0.995977 -0.001823 0.050000
    endloop
  endfacet
  facet normal 0.138084 -0.990420 0.000000
    outer loop
      vertex 0.995977 -0.001823 -0.050000
      vertex 0.995977 -0.001823 0.050000
      vertex 0.993719 -0.002138 -0.050000
    endloop
  endfacet
  facet normal 0.138084 -0.990420 0.000000
    outer loop
      vertex 0.993719 -0.002138 -0.050000
      vertex 0.995977 -0.001823 0.050000
      vertex 0.993719 -0.002138 0.050000
    endloop
  endfacet
  facet normal 0.137667 -0.990479 0.000000
    outer loop
      vertex 0.993719 -0.002138 -0.050000
      vertex 0.993719 -0.002138 0.050000
      vertex 0.990964 -0.002521 -0.050000
    endloop
  endfacet
  facet normal 0.137667 -0.990479 0.000000
    outer loop
      vertex 0.990964 -0.002521 -0.050000
      vertex 0.993719 -0.002138 0.050000
      vertex 0.990964 -0.002521 0.050000
    endloop
  endfacet
  facet normal 0.137169 -0.990548 0.000000
    outer loop
      vertex 0.990964 -0.002521 -0.050000
      vertex 0.990964 -0.002521 0.050000
      vertex 0.987715 -0.002971 -0.050000
    endloop
  endfacet
  facet normal 0.137169 -0.990548 0.000000
    outer loop
      vertex 0.987715 -0.002971 -0.050000
      vertex 0.990964 -0.002521 0.050000
      vertex 0.987715 -0.002971 0.050000
    endloop
  endfacet
  facet normal 0.136594 -0.990627 0.000000
    outer loop
      vertex 0.987715 -0.002971 -0.050000
      vertex 0.987715 -0.002971 0.050000
      vertex 0.983974 -0.003486 -0.050000
    endloop
  endfacet
  facet normal 0.136594 -0.990627 0.000000
    outer loop
      vertex 0.983974 -0.003486 -0.050000
      vertex 0.987715 -0.002971 0.050000
      vertex 0.983974 -0.003486 0.050000
    endloop
  endfacet
  facet normal 0.135944 -0.990717 0.000000
    outer loop
      vertex 0.983974 -0.003486 -0.050000
      vertex 0.983974 -0.003486 0.050000
      vertex 0.979746 -0.004067 -0.050000
    endloop
  endfacet
  facet normal 0.135944 -0.990717 0.000000
    outer loop
      vertex 0.979746 -0.004067 -0.050000
      vertex 0.983974 -0.003486 0.050000
      vertex 0.979746 -0.004067 0.050000
    endloop
  endfacet
  facet normal 0.135220 -0.990816 0.000000
    outer loop
      vertex 0.979746 -0.004067 -0.050000
      vertex 0.979746 -0.004067 0.050000
      vertex 0.975036 -0.004710 -0.050000
    endloop
  endfacet
  facet normal 0.135220 -0.990816 0.000000
    outer loop
      vertex 0.975036 -0.004710 -0.050000
      vertex 0.979746 -0.004067 0.050000
      vertex 0.975036 -0.004710 0.050000
    endloop
  endfacet
  facet normal 0.134425 -0.990924 0.000000
    outer loop
      vertex 0.975036 -0.004710 -0.050000
      vertex 0.975036 -0.004710 0.050000
      vertex 0.969846 -0.005414 -0.050000
    endloop
  endfacet
  facet normal 0.134425 -0.990924 0.000000
    outer loop
      vertex 0.969846 -0.005414 -0.050000
      vertex 0.975036 -0.004710 0.050000
      vertex 0.969846 -0.005414 0.050000
    endloop
  endfacet
  facet normal 0.133563 -0.991040 0.000000
    outer loop
      vertex 0.969846 -0.005414 -0.050000
      vertex 0.969846 -0.005414 0.050000
      vertex 0.964184 -0.006177 -0.050000
    endloop
  endfacet
  facet normal 0.133563 -0.991040 0.000000
    outer loop
      vertex 0.964184 -0.006177 -0.050000
      vertex 0.969846 -0.005414 0.050000
      vertex 0.964184 -0.006177 0.050000
    endloop
  endfacet
  facet normal 0.132636 -0.991165 0.000000
    outer loop
      vertex 0.964184 -0.006177 -0.050000
      vertex 0.964184 -0.006177 0.050000
      vertex 0.958054 -0.006997 -0.050000
    endloop
  endfacet
  facet normal 0.132636 -0.991165 0.000000
    outer loop
      vertex 0.958054 -0.006997 -0.050000
      vertex 0.964184 -0.006177 0.050000
      vertex 0.958054 -0.006997 0.050000
    endloop
  endfacet
  facet normal 0.131648 -0.991297 0.000000
    outer loop
      vertex 0.958054 -0.006997 -0.050000
      vertex 0.958054 -0.006997 0.050000
      vertex 0.951463 -0.007872 -0.050000
    endloop
  endfacet
  facet normal 0.131648 -0.991297 0.000000
    outer loop
      vertex 0.951463 -0.007872 -0.050000
      vertex 0.958054 -0.006997 0.050000
      vertex 0.951463 -0.007872 0.050000
    endloop
  endfacet
  facet normal 0.130600 -0.991435 0.000000
    outer loop
      vertex 0.951463 -0.007872 -0.050000
      vertex 0.951463 -0.007872 0.050000
      vertex 0.944418 -0.008800 -0.050000
    endloop
  endfacet
  facet normal 0.130600 -0.991435 0.000000
    outer loop
      vertex 0.944418 -0.008800 -0.050000
      vertex 0.951463 -0.007872 0.050000
      vertex 0.944418 -0.008800 0.050000
    endloop
  endfacet
  facet normal 0.129498 -0.991580 0.000000
    outer loop
      vertex 0.944418 -0.008800 -0.050000
      vertex 0.944418 -0.008800 0.050000
      vertex 0.936925 -0.009779 -0.050000
    endloop
  endfacet
  facet normal 0.129498 -0.991580 0.000000
    outer loop
      vertex 0.936925 -0.009779 -0.050000
      vertex 0.944418 -0.008800 0.050000
      vertex 0.936925 -0.009779 0.050000
    endloop
  endfacet
  facet normal 0.128342 -0.991730 0.000000
    outer loop
      vertex 0.936925 -0.009779 -0.050000
      vertex 0.936925 -0.009779 0.050000
      vertex 0.928992 -0.010805 -0.050000
    endloop
  endfacet
  facet normal 0.128342 -0.991730 0.000000
    outer loop
      vertex 0.928992 -0.010805 -0.050000
      vertex 0.936925 -0.009779 0.050000
      vertex 0.928992 -0.010805 0.050000
    endloop
  endfacet
  facet normal 0.127138 -0.991885 0.000000
    outer loop
      vertex 0.928992 -0.010805 -0.050000
      vertex 0.928992 -0.010805 0.050000
      vertex 0.920627 -0.011878 -0.050000
    endloop
  endfacet
  facet normal 0.127138 -0.991885 0.000000
    outer loop
      vertex 0.920627 -0.011878 -0.050000
      vertex 0.928992 -0.010805 0.050000
      vertex 0.920627 -0.011878 0.050000
    endloop
  endfacet
  facet normal 0.125886 -0.992045 0.000000
    outer loop
      vertex 0.920627 -0.011878 -0.050000
      vertex 0.920627 -0.011878 0.050000
      vertex 0.911838 -0.012993 -0.050000
    endloop
  endfacet
  facet normal 0.125886 -0.992045 0.000000
    outer loop
      vertex 0.911838 -0.012993 -0.050000
      vertex 0.920627 -0.011878 0.050000
      vertex 0.911838 -0.012993 0.050000
    endloop
  endfacet
  facet normal 0.124591 -0.992208 0.000000
    outer loop
      vertex 0.911838 -0.012993 -0.050000
      vertex 0.911838 -0.012993 0.050000
      vertex 0.902635 -0.014149 -0.050000
    endloop
  endfacet
  facet normal 0.124591 -0.992208 0.000000
    outer loop
      vertex 0.902635 -0.014149 -0.050000
      vertex 0.911838 -0.012993 0.050000
      vertex 0.902635 -0.014149 0.050000
    endloop
  endfacet
  facet normal 0.123255 -0.992375 0.000000
    outer loop
      vertex 0.902635 -0.014149 -0.050000
      vertex 0.902635 -0.014149 0.050000
      vertex 0.893027 -0.015342 -0.050000
    endloop
  endfacet
  facet normal 0.123255 -0.992375 0.000000
    outer loop
      vertex 0.893027 -0.015342 -0.050000
      vertex 0.902635 -0.014149 0.050000
      vertex 0.893027 -0.015342 0.050000
    endloop
  endfacet
  facet normal 0.121879 -0.992545 0.000000
    outer loop
      vertex 0.893027 -0.015342 -0.050000
      vertex 0.893027 -0.015342 0.050000
      vertex 0.883022 -0.016570 -0.050000
    endloop
  endfacet
  facet normal 0.121879 -0.992545 0.000000
    outer loop
      vertex 0.883022 -0.016570 -0.050000
      vertex 0.893027 -0.015342 0.050000
      vertex 0.883022 -0.016570 0.050000
    endloop
  endfacet
  facet normal 0.120467 -0.992717 0.000000
    outer loop
      vertex 0.883022 -0.016570 -0.050000
      vertex 0.883022 -0.016570 0.050000
      vertex 0.872632 -0.017831 -0.050000
    endloop
  endfacet
  facet normal 0.120467 -0.992717 0.000000
    outer loop
      vertex 0.872632 -0.017831 -0.050000
      vertex 0.883022 -0.016570 0.050000
      vertex 0.872632 -0.017831 0.050000
    endloop
  endfacet
  facet normal 0.119018 -0.992892 0.000000
    outer loop
      vertex 0.872632 -0.017831 -0.050000
      vertex 0.872632 -0.017831 0.050000
      vertex 0.861867 -0.019122 -0.050000
    endloop
  endfacet
  facet normal 0.119018 -0.992892 0.000000
    outer loop
      vertex 0.861867 -0.019122 -0.050000
      vertex 0.872632 -0.017831 0.050000
      vertex 0.861867 -0.019122 0.050000
    endloop
  endfacet
  facet normal 0.117536 -0.993069 0.000000
    outer loop
      vertex 0.861867 -0.019122 -0.050000
      vertex 0.861867 -0.019122 0.050000
      vertex 0.850737 -0.020439 -0.050000
    endloop
  endfacet
  facet normal 0.117536 -0.993069 0.000000
    outer loop
      vertex 0.850737 -0.020439 -0.050000
      vertex 0.861867 -0.019122 0.050000
      vertex 0.850737 -0.020439 0.050000
    endloop
  endfacet
  facet normal 0.116019 -0.993247 0.000000
    outer loop
      vertex 0.850737 -0.020439 -0.050000
      vertex 0.850737 -0.020439 0.050000
      vertex 0.839255 -0.021780 -0.050000
    endloop
  endfacet
  facet normal 0.116019 -0.993247 0.000000
    outer loop
      vertex 0.839255 -0.021780 -0.050000
      vertex 0.850737 -0.020439 0.050000
      vertex 0.839255 -0.021780 0.050000
    endloop
  endfacet
  facet normal 0.114470 -0.993427 0.000000
    outer loop
      vertex 0.839255 -0.021780 -0.050000
      vertex 0.839255 -0.021780 0.050000
      vertex 0.827430 -0.023143 -0.050000
    endloop
  endfacet
  facet normal 0.114470 -0.993427 0.000000
    outer loop
      vertex 0.827430 -0.023143 -0.050000
      vertex 0.839255 -0.021780 0.050000
      vertex 0.827430 -0.023143 0.050000
    endloop
  endfacet
  facet normal 0.112888 -0.993608 0.000000
    outer loop
      vertex 0.827430 -0.023143 -0.050000
      vertex 0.827430 -0.023143 0.050000
      vertex 0.815276 -0.024524 -0.050000
    endloop
  endfacet
  facet normal 0.112888 -0.993608 0.000000
    outer loop
      vertex 0.815276 -0.024524 -0.050000
      vertex 0.827430 -0.023143 0.050000
      vertex 0.815276 -0.024524 0.050000
    endloop
  endfacet
  facet normal 0.111272 -0.993790 0.000000
    outer loop
      vertex 0.815276 -0.024524 -0.050000
      vertex 0.815276 -0.024524 0.050000
      vertex 0.802805 -0.025920 -0.050000
    endloop
  endfacet
  facet normal 0.111272 -0.993790 0.000000
    outer loop
      vertex 0.802805 -0.025920 -0.050000
      vertex 0.815276 -0.024524 0.050000
      vertex 0.802805 -0.025920 0.050000
    endloop
  endfacet
  facet normal 0.109621 -0.993973 0.000000
    outer loop
      vertex 0.802805 -0.025920 -0.050000
      vertex 0.802805 -0.025920 0.050000
      vertex 0.790028 -0.027329 -0.050000
    endloop
  endfacet
  facet normal 0.109621 -0.993973 0.000000
    outer loop
      vertex 0.790028 -0.027329 -0.050000
      vertex 0.802805 -0.025920 0.050000
      vertex 0.790028 -0.027329 0.050000
    endloop
  endfacet
  facet normal 0.107934 -0.994158 0.000000
    outer loop
      vertex 0.790028 -0.027329 -0.050000
      vertex 0.790028 -0.027329 0.050000
      vertex 0.776960 -0.028748 -0.050000
    endloop
  endfacet
  facet normal 0.107934 -0.994158 0.000000
    outer loop
      vertex 0.776960 -0.028748 -0.050000
      vertex 0.790028 -0.027329 0.050000
      vertex 0.776960 -0.028748 0.050000
    endloop
  endfacet
  facet normal 0.106208 -0.994344 0.000000
    outer loop
      vertex 0.776960 -0.028748 -0.050000
      vertex 0.776960 -0.028748 0.050000
      vertex 0.763613 -0.030174 -0.050000
    endloop
  endfacet
  facet normal 0.106208 -0.994344 0.000000
    outer loop
      vertex 0.763613 -0.030174 -0.050000
      vertex 0.776960 -0.028748 0.050000
      vertex 0.763613 -0.030174 0.050000
    endloop
  endfacet
  facet normal 0.104441 -0.994531 0.000000
    outer loop
      vertex 0.763613 -0.030174 -0.050000
      vertex 0.763613 -0.030174 0.050000
      vertex 0.750000 -0.031603 -0.050000
    endloop
  endfacet
  facet normal 0.104441 -0.994531 0.000000
    outer loop
      vertex 0.750000 -0.031603 -0.050000
      vertex 0.763613 -0.030174 0.050000
      vertex 0.750000 -0.031603 0.050000
    endloop
  endfacet
  facet normal 0.102630 -0.994720 0.000000
    outer loop
      vertex 0.750000 -0.031603 -0.050000
      vertex 0.750000 -0.031603 0.050000
      vertex 0.736136 -0.033034 -0.050000
    endloop
  endfacet
  facet normal 0.102630 -0.994720 0.000000
    outer loop
      vertex 0.736136 -0.033034 -0.050000
      vertex 0.750000 -0.031603 0.050000
      vertex 0.736136 -0.033034 0.050000
    endloop
  endfacet
  facet normal 0.100771 -0.994910 0.000000
    outer loop
      vertex 0.736136 -0.033034 -0.050000
      vertex 0.736136 -0.033034 0.050000
      vertex 0.722033 -0.034462 -0.050000
    endloop
  endfacet
  facet normal 0.100771 -0.994910 0.000000
    outer loop
      vertex 0.722033 -0.034462 -0.050000
      vertex 0.736136 -0.033034 0.050000
      vertex 0.722033 -0.034462 0.050000
    endloop
  endfacet
  facet normal 0.098859 -0.995101 0.000000
    outer loop
      vertex 0.722033 -0.034462 -0.050000
      vertex 0.722033 -0.034462 0.050000
      vertex 0.707708 -0.035885 -0.050000
    endloop
  endfacet
  facet normal 0.098859 -0.995101 0.000000
    outer loop
      vertex 0.707708 -0.035885 -0.050000
      vertex 0.722033 -0.034462 0.050000
      vertex 0.707708 -0.035885 0.050000
    endloop
  endfacet
  facet normal 0.096889 -0.995295 0.000000
    outer loop
      vertex 0.707708 -0.035885 -0.050000
      vertex 0.707708 -0.035885 0.050000
      vertex 0.693173 -0.037300 -0.050000
    endloop
  endfacet
  facet normal 0.096889 -0.995295 0.000000
    outer loop
      vertex 0.693173 -0.037300 -0.050000
      vertex 0.707708 -0.035885 0.050000
      vertex 0.693173 -0.037300 0.050000
    endloop
  endfacet
  facet normal 0.094857 -0.995491 0.000000
    outer loop
      vertex 0.693173 -0.037300 -0.050000
      vertex 0.693173 -0.037300 0.050000
      vertex 0.678443 -0.038704 -0.050000
    endloop
  endfacet
  facet normal 0.094857 -0.995491 0.000000
    outer loop
      vertex 0.678443 -0.038704 -0.050000
      vertex 0.693173 -0.037300 0.050000
      vertex 0.678443 -0.038704 0.050000
    endloop
  endfacet
  facet normal 0.092756 -0.995689 0.000000
    outer loop
      vertex 0.678443 -0.038704 -0.050000
      vertex 0.678443 -0.038704 0.050000
      vertex 0.663534 -0.040092 -0.050000
    endloop
  endfacet
  facet normal 0.092756 -0.995689 0.000000
    outer loop
      vertex 0.663534 -0.040092 -0.050000
      vertex 0.678443 -0.038704 0.050000
      vertex 0.663534 -0.040092 0.050000
    endloop
  endfacet
  facet normal 0.090580 -0.995889 0.000000
    outer loop
      vertex 0.663534 -0.040092 -0.050000
      vertex 0.663534 -0.040092 0.050000
      vertex 0.648460 -0.041463 -0.050000
    endloop
  endfacet
  facet normal 0.090580 -0.995889 0.000000
    outer loop
      vertex 0.648460 -0.041463 -0.050000
      vertex 0.663534 -0.040092 0.050000
      vertex 0.648460 -0.041463 0.050000
    endloop
  endfacet
  facet normal 0.088321 -0.996092 0.000000
    outer loop
      vertex 0.648460 -0.041463 -0.050000
      vertex 0.648460 -0.041463 0.050000
      vertex 0.633237 -0.042813 -0.050000
    endloop
  endfacet
  facet normal 0.088321 -0.996092 0.000000
    outer loop
      vertex 0.633237 -0.042813 -0.050000
      vertex 0.648460 -0.041463 0.050000
      vertex 0.633237 -0.042813 0.050000
    endloop
  endfacet
  facet normal 0.085974 -0.996297 0.000000
    outer loop
      vertex 0.633237 -0.042813 -0.050000
      vertex 0.633237 -0.042813 0.050000
      vertex 0.617879 -0.044139 -0.050000
    endloop
  endfacet
  facet normal 0.085974 -0.996297 0.000000
    outer loop
      vertex 0.617879 -0.044139 -0.050000
      vertex 0.633237 -0.042813 0.050000
      vertex 0.617879 -0.044139 0.050000
    endloop
  endfacet
  facet normal 0.083529 -0.996505 0.000000
    outer loop
      vertex 0.617879 -0.044139 -0.050000
      vertex 0.617879 -0.044139 0.050000
      vertex 0.602403 -0.045436 -0.050000
    endloop
  endfacet
  facet normal 0.083529 -0.996505 0.000000
    outer loop
      vertex 0.602403 -0.045436 -0.050000
      vertex 0.617879 -0.044139 0.050000
      vertex 0.602403 -0.045436 0.050000
    endloop
  endfacet
  facet normal 0.080980 -0.996716 0.000000
    outer loop
      vertex 0.602403 -0.045436 -0.050000
      vertex 0.602403 -0.045436 0.050000
      vertex 0.586824 -0.046702 -0.050000
    endloop
  endfacet
  facet normal 0.080980 -0.996716 0.000000
    outer loop
      vertex 0.586824 -0.046702 -0.050000
      vertex 0.602403 -0.045436 0.050000
      vertex 0.586824 -0.046702 0.050000
    endloop
  endfacet
  facet normal 0.078316 -0.996929 0.000000
    outer loop
      vertex 0.586824 -0.046702 -0.050000
      vertex 0.586824 -0.046702 0.050000
      vertex 0.571157 -0.047932 -0.050000
    endloop
  endfacet
  facet normal 0.078316 -0.996929 0.000000
    outer loop
      vertex 0.571157 -0.047932 -0.050000
      vertex 0.586824 -0.046702 0.050000
      vertex 0.571157 -0.047932 0.050000
    endloop
  endfacet
  facet normal 0.075531 -0.997143 0.000000
    outer loop
      vertex 0.571157 -0.047932 -0.050000
      vertex 0.571157 -0.047932 0.050000
      vertex 0.555419 -0.049124 -0.050000
    endloop
  endfacet
  facet normal 0.075531 -0.997143 0.000000
    outer loop
      vertex 0.555419 -0.049124 -0.050000
      vertex 0.571157 -0.047932 0.050000
      vertex 0.555419 -0.049124 0.050000
    endloop
  endfacet
  facet normal 0.072613 -0.997360 0.000000
    outer loop
      vertex 0.555419 -0.049124 -0.050000
      vertex 0.555419 -0.049124 0.050000
      vertex 0.539625 -0.050274 -0.050000
    endloop
  endfacet
  facet normal 0.072613 -0.997360 0.000000
    outer loop
      vertex 0.539625 -0.050274 -0.050000
      vertex 0.555419 -0.049124 0.050000
      vertex 0.539625 -0.050274 0.050000
    endloop
  endfacet
  facet normal 0.069555 -0.997578 0.000000
    outer loop
      vertex 0.539625 -0.050274 -0.050000
      vertex 0.539625 -0.050274 0.050000
      vertex 0.523791 -0.051378 -0.050000
    endloop
  endfacet
  facet normal 0.069555 -0.997578 0.000000
    outer loop
      vertex 0.523791 -0.051378 -0.050000
      vertex 0.539625 -0.050274 0.050000
      vertex 0.523791 -0.051378 0.050000
    endloop
  endfacet
  facet normal 0.066347 -0.997797 0.000000
    outer loop
      vertex 0.523791 -0.051378 -0.050000
      vertex 0.523791 -0.051378 0.050000
      vertex 0.507933 -0.052433 -0.050000
    endloop
  endfacet
  facet normal 0.066347 -0.997797 0.000000
    outer loop
      vertex 0.507933 -0.052433 -0.050000
      vertex 0.523791 -0.051378 0.050000
      vertex 0.507933 -0.052433 0.050000
    endloop
  endfacet
  facet normal 0.062979 -0.998015 0.000000
    outer loop
      vertex 0.507933 -0.052433 -0.050000
      vertex 0.507933 -0.052433 0.050000
      vertex 0.492067 -0.053434 -0.050000
    endloop
  endfacet
  facet normal 0.062979 -0.998015 0.000000
    outer loop
      vertex 0.492067 -0.053434 -0.050000
      vertex 0.507933 -0.052433 0.050000
      vertex 0.492067 -0.053434 0.050000
    endloop
  endfacet
  facet normal 0.059440 -0.998232 0.000000
    outer loop
      vertex 0.492067 -0.053434 -0.050000
      vertex 0.492067 -0.053434 0.050000
      vertex 0.476209 -0.054378 -0.050000
    endloop
  endfacet
  facet normal 0.059440 -0.998232 0.000000
    outer loop
      vertex 0.476209 -0.054378 -0.050000
      vertex 0.492067 -0.053434 0.050000
      vertex 0.476209 -0.054378 0.050000
    endloop
  endfacet
  facet normal 0.055722 -0.998446 0.000000
    outer loop
      vertex 0.476209 -0.054378 -0.050000
      vertex 0.476209 -0.054378 0.050000
      vertex 0.460375 -0.055262 -0.050000
    endloop
  endfacet
  facet normal 0.055722 -0.998446 0.000000
    outer loop
      vertex 0.460375 -0.055262 -0.050000
      vertex 0.476209 -0.054378 0.050000
      vertex 0.460375 -0.055262 0.050000
    endloop
  endfacet
  facet normal 0.051812 -0.998657 0.000000
    outer loop
      vertex 0.460375 -0.055262 -0.050000
      vertex 0.460375 -0.055262 0.050000
      vertex 0.444581 -0.056081 -0.050000
    endloop
  endfacet
  facet normal 0.051812 -0.998657 0.000000
    outer loop
      vertex 0.444581 -0.056081 -0.050000
      vertex 0.460375 -0.055262 0.050000
      vertex 0.444581 -0.056081 0.050000
    endloop
  endfacet
  facet normal 0.047702 -0.998862 0.000000
    outer loop
      vertex 0.444581 -0.056081 -0.050000
      vertex 0.444581 -0.056081 0.050000
      vertex 0.428843 -0.056833 -0.050000
    endloop
  endfacet
  facet normal 0.047702 -0.998862 0.000000
    outer loop
      vertex 0.428843 -0.056833 -0.050000
      vertex 0.444581 -0.056081 0.050000
      vertex 0.428843 -0.056833 0.050000
    endloop
  endfacet
  facet normal 0.043381 -0.999059 0.000000
    outer loop
      vertex 0.428843 -0.056833 -0.050000
      vertex 0.428843 -0.056833 0.050000
      vertex 0.413176 -0.057513 -0.050000
    endloop
  endfacet
  facet normal 0.043381 -0.999059 0.000000
    outer loop
      vertex 0.413176 -0.057513 -0.050000
      vertex 0.428843 -0.056833 0.050000
      vertex 0.413176 -0.057513 0.050000
    endloop
  endfacet
  facet normal 0.038838 -0.999246 0.000000
    outer loop
      vertex 0.413176 -0.057513 -0.050000
      vertex 0.413176 -0.057513 0.050000
      vertex 0.397597 -0.058119 -0.050000
    endloop
  endfacet
  facet normal 0.038838 -0.999246 0.000000
    outer loop
      vertex 0.397597 -0.058119 -0.050000
      vertex 0.413176 -0.057513 0.050000
      vertex 0.397597 -0.058119 0.050000
    endloop
  endfacet
  facet normal 0.034061 -0.999420 0.000000
    outer loop
      vertex 0.397597 -0.058119 -0.050000
      vertex 0.397597 -0.058119 0.050000
      vertex 0.382121 -0.058646 -0.050000
    endloop
  endfacet
  facet normal 0.034061 -0.999420 0.000000
    outer loop
      vertex 0.382121 -0.058646 -0.050000
      vertex 0.397597 -0.058119 0.050000
      vertex 0.382121 -0.058646 0.050000
    endloop
  endfacet
  facet normal 0.029040 -0.999578 0.000000
    outer loop
      vertex 0.382121 -0.058646 -0.050000
      vertex 0.382121 -0.058646 0.050000
      vertex 0.366763 -0.059092 -0.050000
    endloop
  endfacet
  facet normal 0.029040 -0.999578 0.000000
    outer loop
      vertex 0.366763 -0.059092 -0.050000
      vertex 0.382121 -0.058646 0.050000
      vertex 0.366763 -0.059092 0.050000
    endloop
  endfacet
  facet normal 0.023764 -0.999718 0.000000
    outer loop
      vertex 0.366763 -0.059092 -0.050000
      vertex 0.366763 -0.059092 0.050000
      vertex 0.351540 -0.059454 -0.050000
    endloop
  endfacet
  facet normal 0.023764 -0.999718 0.000000
    outer loop
      vertex 0.351540 -0.059454 -0.050000
      vertex 0.366763 -0.059092 0.050000
      vertex 0.351540 -0.059454 0.050000
    endloop
  endfacet
  facet normal 0.018221 -0.999834 0.000000
    outer loop
      vertex 0.351540 -0.059454 -0.050000
      vertex 0.351540 -0.059454 0.050000
      vertex 0.336466 -0.059729 -0.050000
    endloop
  endfacet
  facet normal 0.018221 -0.999834 0.000000
    outer loop
      vertex 0.336466 -0.059729 -0.050000
      vertex 0.351540 -0.059454 0.050000
      vertex 0.336466 -0.059729 0.050000
    endloop
  endfacet
  facet normal 0.012398 -0.999923 0.000000
    outer loop
      vertex 0.336466 -0.059729 -0.050000
      vertex 0.336466 -0.059729 0.050000
      vertex 0.321557 -0.059914 -0.050000
    endloop
  endfacet
  facet normal 0.012398 -0.999923 0.000000
    outer loop
      vertex 0.321557 -0.059914 -0.050000
      vertex 0.336466 -0.059729 0.050000
      vertex 0.321557 -0.059914 0.050000
    endloop
  endfacet
  facet normal 0.006282 -0.999980 0.000000
    outer loop
      vertex 0.321557 -0.059914 -0.050000
      vertex 0.321557 -0.059914 0.050000
      vertex 0.306827 -0.060006 -0.050000
    endloop
  endfacet
  facet normal 0.006282 -0.999980 0.000000
    outer loop
      vertex 0.306827 -0.060006 -0.050000
      vertex 0.321557 -0.059914 0.050000
      vertex 0.306827 -0.060006 0.050000
    endloop
  endfacet
  facet normal -0.000138 -1.000000 0.000000
    outer loop
      vertex 0.306827 -0.060006 -0.050000
      vertex 0.306827 -0.060006 0.050000
      vertex 0.292292 -0.060004 -0.050000
    endloop
  endfacet
  facet normal -0.000138 -1.000000 0.000000
    outer loop
      vertex 0.292292 -0.060004 -0.050000
      vertex 0.306827 -0.060006 0.050000
      vertex 0.292292 -0.060004 0.050000
    endloop
  endfacet
  facet normal -0.006879 -0.999976 0.000000
    outer loop
      vertex 0.292292 -0.060004 -0.050000
      vertex 0.292292 -0.060004 0.050000
      vertex 0.277967 -0.059906 -0.050000
    endloop
  endfacet
  facet normal -0.006879 -0.999976 0.000000
    outer loop
      vertex 0.277967 -0.059906 -0.050000
      vertex 0.292292 -0.060004 0.050000
      vertex 0.277967 -0.059906 0.050000
    endloop
  endfacet
  facet normal -0.013955 -0.999903 0.000000
    outer loop
      vertex 0.277967 -0.059906 -0.050000
      vertex 0.277967 -0.059906 0.050000
      vertex 0.263864 -0.059709 -0.050000
    endloop
  endfacet
  facet normal -0.013955 -0.999903 0.000000
    outer loop
      vertex 0.263864 -0.059709 -0.050000
      vertex 0.277967 -0.059906 0.050000
      vertex 0.263864 -0.059709 0.050000
    endloop
  endfacet
  facet normal -0.021382 -0.999771 0.000000
    outer loop
      vertex 0.263864 -0.059709 -0.050000
      vertex 0.263864 -0.059709 0.050000
      vertex 0.250000 -0.059412 -0.050000
    endloop
  endfacet
  facet normal -0.021382 -0.999771 0.000000
    outer loop
      vertex 0.250000 -0.059412 -0.050000
      vertex 0.263864 -0.059709 0.050000
      vertex 0.250000 -0.059412 0.050000
    endloop
  endfacet
  facet normal -0.029180 -0.999574 0.000000
    outer loop
      vertex 0.250000 -0.059412 -0.050000
      vertex 0.250000 -0.059412 0.050000
      vertex 0.236387 -0.059015 -0.050000
    endloop
  endfacet
  facet normal -0.029180 -0.999574 0.000000
    outer loop
      vertex 0.236387 -0.059015 -0.050000
      vertex 0.250000 -0.059412 0.050000
      vertex 0.236387 -0.059015 0.050000
    endloop
  endfacet
  facet normal -0.037368 -0.999302 0.000000
    outer loop
      vertex 0.236387 -0.059015 -0.050000
      vertex 0.236387 -0.059015 0.050000
      vertex 0.223040 -0.058516 -0.050000
    endloop
  endfacet
  facet normal -0.037368 -0.999302 0.000000
    outer loop
      vertex 0.223040 -0.058516 -0.050000
      vertex 0.236387 -0.059015 0.050000
      vertex 0.223040 -0.058516 0.050000
    endloop
  endfacet
  facet normal -0.045970 -0.998943 0.000000
    outer loop
      vertex 0.223040 -0.058516 -0.050000
      vertex 0.223040 -0.058516 0.050000
      vertex 0.209972 -0.057915 -0.050000
    endloop
  endfacet
  facet normal -0.045970 -0.998943 0.000000
    outer loop
      vertex 0.209972 -0.057915 -0.050000
      vertex 0.223040 -0.058516 0.050000
      vertex 0.209972 -0.057915 0.050000
    endloop
  endfacet
  facet normal -0.055010 -0.998486 0.000000
    outer loop
      vertex 0.209972 -0.057915 -0.050000
      vertex 0.209972 -0.057915 0.050000
      vertex 0.197195 -0.057211 -0.050000
    endloop
  endfacet
  facet normal -0.055010 -0.998486 0.000000
    outer loop
      vertex 0.197195 -0.057211 -0.050000
      vertex 0.209972 -0.057915 0.050000
      vertex 0.197195 -0.057211 0.050000
    endloop
  endfacet
  facet normal -0.064519 -0.997916 0.000000
    outer loop
      vertex 0.197195 -0.057211 -0.050000
      vertex 0.197195 -0.057211 0.050000
      vertex 0.184724 -0.056404 -0.050000
    endloop
  endfacet
  facet normal -0.064519 -0.997916 0.000000
    outer loop
      vertex 0.184724 -0.056404 -0.050000
      vertex 0.197195 -0.057211 0.050000
      vertex 0.184724 -0.056404 0.050000
    endloop
  endfacet
  facet normal -0.074530 -0.997219 0.000000
    outer loop
      vertex 0.184724 -0.056404 -0.050000
      vertex 0.184724 -0.056404 0.050000
      vertex 0.172570 -0.055496 -0.050000
    endloop
  endfacet
  facet normal -0.074530 -0.997219 0.000000
    outer loop
      vertex 0.172570 -0.055496 -0.050000
      vertex 0.184724 -0.056404 0.050000
      vertex 0.172570 -0.055496 0.050000
    endloop
  endfacet
  facet normal -0.085081 -0.996374 0.000000
    outer loop
      vertex 0.172570 -0.055496 -0.050000
      vertex 0.172570 -0.055496 0.050000
      vertex 0.160745 -0.054486 -0.050000
    endloop
  endfacet
  facet normal -0.085081 -0.996374 0.000000
    outer loop
      vertex 0.160745 -0.054486 -0.050000
      vertex 0.172570 -0.055496 0.050000
      vertex 0.160745 -0.054486 0.050000
    endloop
  endfacet
  facet normal -0.096219 -0.995360 0.000000
    outer loop
      vertex 0.160745 -0.054486 -0.050000
      vertex 0.160745 -0.054486 0.050000
      vertex 0.149263 -0.053376 -0.050000
    endloop
  endfacet
  facet normal -0.096219 -0.995360 0.000000
    outer loop
      vertex 0.149263 -0.053376 -0.050000
      vertex 0.160745 -0.054486 0.050000
      vertex 0.149263 -0.053376 0.050000
    endloop
  endfacet
  facet normal -0.107995 -0.994151 0.000000
    outer loop
      vertex 0.149263 -0.053376 -0.050000
      vertex 0.149263 -0.053376 0.050000
      vertex 0.138133 -0.052167 -0.050000
    endloop
  endfacet
  facet normal -0.107995 -0.994151 0.000000
    outer loop
      vertex 0.138133 -0.052167 -0.050000
      vertex 0.149263 -0.053376 0.050000
      vertex 0.138133 -0.052167 0.050000
    endloop
  endfacet
  facet normal -0.120472 -0.992717 0.000000
    outer loop
      vertex 0.138133 -0.052167 -0.050000
      vertex 0.138133 -0.052167 0.050000
      vertex 0.127368 -0.050861 -0.050000
    endloop
  endfacet
  facet normal -0.120472 -0.992717 0.000000
    outer loop
      vertex 0.127368 -0.050861 -0.050000
      vertex 0.138133 -0.052167 0.050000
      vertex 0.127368 -0.050861 0.050000
    endloop
  endfacet
  facet normal -0.133723 -0.991019 0.000000
    outer loop
      vertex 0.127368 -0.050861 -0.050000
      vertex 0.127368 -0.050861 0.050000
      vertex 0.116978 -0.049459 -0.050000
    endloop
  endfacet
  facet normal -0.133723 -0.991019 0.000000
    outer loop
      vertex 0.116978 -0.049459 -0.050000
      vertex 0.127368 -0.050861 0.050000
      vertex 0.116978 -0.049459 0.050000
    endloop
  endfacet
  facet normal -0.147834 -0.989012 0.000000
    outer loop
      vertex 0.116978 -0.049459 -0.050000
      vertex 0.116978 -0.049459 0.050000
      vertex 0.106973 -0.047963 -0.050000
    endloop
  endfacet
  facet normal -0.147834 -0.989012 0.000000
    outer loop
      vertex 0.106973 -0.047963 -0.050000
      vertex 0.116978 -0.049459 0.050000
      vertex 0.106973 -0.047963 0.050000
    endloop
  endfacet
  facet normal -0.162908 -0.986641 0.000000
    outer loop
      vertex 0.106973 -0.047963 -0.050000
      vertex 0.106973 -0.047963 0.050000
      vertex 0.097365 -0.046377 -0.050000
    endloop
  endfacet
  facet normal -0.162908 -0.986641 0.000000
    outer loop
      vertex 0.097365 -0.046377 -0.050000
      vertex 0.106973 -0.047963 0.050000
      vertex 0.097365 -0.046377 0.050000
    endloop
  endfacet
  facet normal -0.179066 -0.983837 0.000000
    outer loop
      vertex 0.097365 -0.046377 -0.050000
      vertex 0.097365 -0.046377 0.050000
      vertex 0.088162 -0.044702 -0.050000
    endloop
  endfacet
  facet normal -0.179066 -0.983837 0.000000
    outer loop
      vertex 0.088162 -0.044702 -0.050000
      vertex 0.097365 -0.046377 0.050000
      vertex 0.088162 -0.044702 0.050000
    endloop
  endfacet
  facet normal -0.196456 -0.980513 0.000000
    outer loop
      vertex 0.088162 -0.044702 -0.050000
      vertex 0.088162 -0.044702 0.050000
      vertex 0.079373 -0.042941 -0.050000
    endloop
  endfacet
  facet normal -0.196456 -0.980513 0.000000
    outer loop
      vertex 0.079373 -0.042941 -0.050000
      vertex 0.088162 -0.044702 0.050000
      vertex 0.079373 -0.042941 0.050000
    endloop
  endfacet
  facet normal -0.215252 -0.976559 0.000000
    outer loop
      vertex 0.079373 -0.042941 -0.050000
      vertex 0.079373 -0.042941 0.050000
      vertex 0.071008 -0.041097 -0.050000
    endloop
  endfacet
  facet normal -0.215252 -0.976559 0.000000
    outer loop
      vertex 0.071008 -0.041097 -0.050000
      vertex 0.079373 -0.042941 0.050000
      vertex 0.071008 -0.041097 0.050000
    endloop
  endfacet
  facet normal -0.235664 -0.971835 0.000000
    outer loop
      vertex 0.071008 -0.041097 -0.050000
      vertex 0.071008 -0.041097 0.050000
      vertex 0.063075 -0.039174 -0.050000
    endloop
  endfacet
  facet normal -0.235664 -0.971835 0.000000
    outer loop
      vertex 0.063075 -0.039174 -0.050000
      vertex 0.071008 -0.041097 0.050000
      vertex 0.063075 -0.039174 0.050000
    endloop
  endfacet
  facet normal -0.257946 -0.966159 0.000000
    outer loop
      vertex 0.063075 -0.039174 -0.050000
      vertex 0.063075 -0.039174 0.050000
      vertex 0.055582 -0.037173 -0.050000
    endloop
  endfacet
  facet normal -0.257946 -0.966159 0.000000
    outer loop
      vertex 0.055582 -0.037173 -0.050000
      vertex 0.063075 -0.039174 0.050000
      vertex 0.055582 -0.037173 0.050000
    endloop
  endfacet
  facet normal -0.282405 -0.959295 0.000000
    outer loop
      vertex 0.055582 -0.037173 -0.050000
      vertex 0.055582 -0.037173 0.050000
      vertex 0.048537 -0.035099 -0.050000
    endloop
  endfacet
  facet normal -0.282405 -0.959295 0.000000
    outer loop
      vertex 0.048537 -0.035099 -0.050000
      vertex 0.055582 -0.037173 0.050000
      vertex 0.048537 -0.035099 0.050000
    endloop
  endfacet
  facet normal -0.309409 -0.950929 0.000000
    outer loop
      vertex 0.048537 -0.035099 -0.050000
      vertex 0.048537 -0.035099 0.050000
      vertex 0.041946 -0.032954 -0.050000
    endloop
  endfacet
  facet normal -0.309409 -0.950929 0.000000
    outer loop
      vertex 0.041946 -0.032954 -0.050000
      vertex 0.048537 -0.035099 0.050000
      vertex 0.041946 -0.032954 0.050000
    endloop
  endfacet
  facet normal -0.339404 -0.940641 0.000000
    outer loop
      vertex 0.041946 -0.032954 -0.050000
      vertex 0.041946 -0.032954 0.050000
      vertex 0.035816 -0.030743 -0.050000
    endloop
  endfacet
  facet normal -0.339404 -0.940641 0.000000
    outer loop
      vertex 0.035816 -0.030743 -0.050000
      vertex 0.041946 -0.032954 0.050000
      vertex 0.035816 -0.030743 0.050000
    endloop
  endfacet
  facet normal -0.372920 -0.927864 0.000000
    outer loop
      vertex 0.035816 -0.030743 -0.050000
      vertex 0.035816 -0.030743 0.050000
      vertex 0.030154 -0.028467 -0.050000
    endloop
  endfacet
  facet normal -0.372920 -0.927864 0.000000
    outer loop
      vertex 0.030154 -0.028467 -0.050000
      vertex 0.035816 -0.030743 0.050000
      vertex 0.030154 -0.028467 0.050000
    endloop
  endfacet
  facet normal -0.410585 -0.911822 0.000000
    outer loop
      vertex 0.030154 -0.028467 -0.050000
      vertex 0.030154 -0.028467 0.050000
      vertex 0.024964 -0.026130 -0.050000
    endloop
  endfacet
  facet normal -0.410585 -0.911822 0.000000
    outer loop
      vertex 0.024964 -0.026130 -0.050000
      vertex 0.030154 -0.028467 0.050000
      vertex 0.024964 -0.026130 0.050000
    endloop
  endfacet
  facet normal -0.453120 -0.891450 0.000000
    outer loop
      vertex 0.024964 -0.026130 -0.050000
      vertex 0.024964 -0.026130 0.050000
      vertex 0.020254 -0.023736 -0.050000
    endloop
  endfacet
  facet normal -0.453120 -0.891450 0.000000
    outer loop
      vertex 0.020254 -0.023736 -0.050000
      vertex 0.024964 -0.026130 0.050000
      vertex 0.020254 -0.023736 0.050000
    endloop
  endfacet
  facet normal -0.501312 -0.865267 0.000000
    outer loop
      vertex 0.020254 -0.023736 -0.050000
      vertex 0.020254 -0.023736 0.050000
      vertex 0.016026 -0.021286 -0.050000
    endloop
  endfacet
  facet normal -0.501312 -0.865267 0.000000
    outer loop
      vertex 0.016026 -0.021286 -0.050000
      vertex 0.020254 -0.023736 0.050000
      vertex 0.016026 -0.021286 0.050000
    endloop
  endfacet
  facet normal -0.555934 -0.831226 0.000000
    outer loop
      vertex 0.016026 -0.021286 -0.050000
      vertex 0.016026 -0.021286 0.050000
      vertex 0.012285 -0.018784 -0.050000
    endloop
  endfacet
  facet normal -0.555934 -0.831226 0.000000
    outer loop
      vertex 0.012285 -0.018784 -0.050000
      vertex 0.016026 -0.021286 0.050000
      vertex 0.012285 -0.018784 0.050000
    endloop
  endfacet
  facet normal -0.617553 -0.786529 0.000000
    outer loop
      vertex 0.012285 -0.018784 -0.050000
      vertex 0.012285 -0.018784 0.050000
      vertex 0.009036 -0.016233 -0.050000
    endloop
  endfacet
  facet normal -0.617553 -0.786529 0.000000
    outer loop
      vertex 0.009036 -0.016233 -0.050000
      vertex 0.012285 -0.018784 0.050000
      vertex 0.009036 -0.016233 0.050000
    endloop
  endfacet
  facet normal -0.686143 -0.727467 0.000000
    outer loop
      vertex 0.009036 -0.016233 -0.050000
      vertex 0.009036 -0.016233 0.050000
      vertex 0.006281 -0.013634 -0.050000
    endloop
  endfacet
  facet normal -0.686143 -0.727467 0.000000
    outer loop
      vertex 0.006281 -0.013634 -0.050000
      vertex 0.009036 -0.016233 0.050000
      vertex 0.006281 -0.013634 0.050000
    endloop
  endfacet
  facet normal -0.760398 -0.649457 0.000000
    outer loop
      vertex 0.006281 -0.013634 -0.050000
      vertex 0.006281 -0.013634 0.050000
      vertex 0.004023 -0.010991 -0.050000
    endloop
  endfacet
  facet normal -0.760398 -0.649457 0.000000
    outer loop
      vertex 0.004023 -0.010991 -0.050000
      vertex 0.006281 -0.013634 0.050000
      vertex 0.004023 -0.010991 0.050000
    endloop
  endfacet
  facet normal -0.836715 -0.547639 0.000000
    outer loop
      vertex 0.004023 -0.010991 -0.050000
      vertex 0.004023 -0.010991 0.050000
      vertex 0.002264 -0.008304 -0.050000
    endloop
  endfacet
  facet normal -0.836715 -0.547639 0.000000
    outer loop
      vertex 0.002264 -0.008304 -0.050000
      vertex 0.004023 -0.010991 0.050000
      vertex 0.002264 -0.008304 0.050000
    endloop
  endfacet
  facet normal -0.908192 -0.418553 0.000000
    outer loop
      vertex 0.002264 -0.008304 -0.050000
      vertex 0.002264 -0.008304 0.050000
      vertex 0.001007 -0.005576 -0.050000
    endloop
  endfacet
  facet normal -0.908192 -0.418553 0.000000
    outer loop
      vertex 0.001007 -0.005576 -0.050000
      vertex 0.002264 -0.008304 0.050000
      vertex 0.001007 -0.005576 0.050000
    endloop
  endfacet
  facet normal -0.964771 -0.263092 0.000000
    outer loop
      vertex 0.001007 -0.005576 -0.050000
      vertex 0.001007 -0.005576 0.050000
      vertex 0.000252 -0.002807 -0.050000
    endloop
  endfacet
  facet normal -0.964771 -0.263092 0.000000
    outer loop
      vertex 0.000252 -0.002807 -0.050000
      vertex 0.001007 -0.005576 0.050000
      vertex 0.000252 -0.002807 0.050000
    endloop
  endfacet
  facet normal -0.996004 -0.089310 0.000000
    outer loop
      vertex 0.000252 -0.002807 -0.050000
      vertex 0.000252 -0.002807 0.050000
      vertex 0.000000 -0.000000 -0.050000
    endloop
  endfacet
  facet normal -0.996004 -0.089310 0.000000
    outer loop
      vertex 0.000000 -0.000000 -0.050000
      vertex 0.000252 -0.002807 0.050000
      vertex 0.000000 -0.000000 0.050000
    endloop
  endfacet
  facet normal 0.000000 0.000000 1.000000
    outer loop
      vertex 0.000000 -0.000000 -0.050000
      vertex 0.000000 -0.000000 0.050000
      vertex 0.000000 0.000000 -0.050000
    endloop
  endfacet
  facet normal 0.000000 0.000000 1.000000
    outer loop
      vertex 0.000000 0.000000 -0.050000
      vertex 0.000000 -0.000000 0.050000
      vertex 0.000000 0.000000 0.050000
    endloop
  endfacet
endsolid NACA0012
